<?xml version="1.0" encoding="UTF-8" standalone="no"?>
<!-- Created with Inkscape (http://www.inkscape.org/) -->

<svg
   width="512"
   height="512"
   viewBox="0 0 135.46666 135.46667"
   version="1.1"
   id="svg1"
   inkscape:version="1.3 (0e150ed6c4, 2023-07-21)"
   sodipodi:docname="favicon.svg"
   xmlns:inkscape="http://www.inkscape.org/namespaces/inkscape"
   xmlns:sodipodi="http://sodipodi.sourceforge.net/DTD/sodipodi-0.dtd"
   xmlns="http://www.w3.org/2000/svg"
   xmlns:svg="http://www.w3.org/2000/svg">
  <sodipodi:namedview
     id="namedview1"
     pagecolor="#ffffff"
     bordercolor="#000000"
     borderopacity="0.25"
     inkscape:showpageshadow="2"
     inkscape:pageopacity="0.0"
     inkscape:pagecheckerboard="0"
     inkscape:deskcolor="#d1d1d1"
     inkscape:document-units="mm"
     inkscape:zoom="0.46324355"
     inkscape:cx="397.19927"
     inkscape:cy="215.86917"
     inkscape:window-width="1366"
     inkscape:window-height="726"
     inkscape:window-x="0"
     inkscape:window-y="898"
     inkscape:window-maximized="1"
     inkscape:current-layer="layer1" />
  <defs
     id="defs1" />
  <g
     inkscape:label="Layer 1"
     inkscape:groupmode="layer"
     id="layer1">
    <rect
       style="fill:#ffffff;fill-opacity:1;stroke-width:0.264583"
       id="rect1"
       width="135.46666"
       height="135.46666"
       x="0"
       y="0"
       ry="13.873768" />
    <path
       style="font-weight:900;font-size:70.5556px;font-family:Unbounded;-inkscape-font-specification:'Unbounded Heavy';text-align:center;text-anchor:middle;stroke-width:0.264583"
       d="m 29.950778,76.764447 q 0.388056,2.328335 3.21028,3.633614 2.822224,1.305278 7.655283,1.305278 8.960561,0 8.960561,-3.598336 0,-1.411112 -1.481667,-2.222501 -1.481668,-0.846667 -5.362226,-1.093612 L 34.184114,74.224445 Q 22.54244,73.448334 17.109658,69.250275 11.676877,65.052217 11.676877,57.78499 q 0,-5.78556 3.316113,-9.771951 3.351391,-3.986392 9.454451,-5.997227 6.138337,-2.010834 14.393343,-2.010834 7.902227,0 14.11112,2.222501 6.208894,2.222502 9.807229,6.279449 3.633614,4.056947 4.02167,9.348617 H 48.295235 q -0.317501,-1.940279 -2.822224,-2.998613 -2.504724,-1.093612 -6.985005,-1.093612 -8.325561,0 -8.325561,3.316114 0,1.340556 1.411112,2.151946 1.411112,0.776111 4.938892,1.023056 l 9.877784,0.635 q 7.725839,0.49389 12.52362,2.293057 4.797781,1.76389 7.020282,4.938893 2.25778,3.139724 2.25778,7.866949 0,5.78556 -3.457225,10.230563 -3.457224,4.409725 -9.736673,6.843893 -6.279449,2.398891 -14.534454,2.398891 -8.537228,0 -15.098899,-2.328335 Q 18.83827,90.805012 15.204657,86.571676 11.571043,82.33834 11.46521,76.764447 Z M 92.81588,41.274979 v 36.688913 h 31.18558 V 94.191681 H 74.612534 V 41.274979 Z"
       id="text1"
       aria-label="SL" />
  </g>
</svg>
